<svg xmlns="http://www.w3.org/2000/svg" viewBox="0 0 320 230" role="img" aria-labelledby="title desc">
  <title id="title">Antacid and mineral spacing card</title>
  <desc id="desc">Medicine and calcium magnesium iron supplements separated by a clock.</desc>
  <rect width="320" height="230" rx="22" fill="#fffdf9"/>
  <rect x="16" y="16" width="288" height="198" rx="20" fill="#ffffff" stroke="#b9b2a9" stroke-width="3"/>
  <path d="M50 184c43 13 145 14 220 2" fill="none" stroke="#ffe8c9" stroke-width="21" stroke-linecap="round"/>
  <rect x="48" y="72" width="61" height="87" rx="13" fill="#dbeeff" stroke="#5d5348" stroke-width="5"/>
  <rect x="60" y="51" width="38" height="24" rx="6" fill="#70aee8" stroke="#5d5348" stroke-width="5"/>
  <text x="79" y="120" text-anchor="middle" font-family="Arial, sans-serif" font-size="21" font-weight="800" fill="#5d5348">Rx</text>
  <circle cx="157" cy="115" r="39" fill="#fff1bf" stroke="#5d5348" stroke-width="5"/>
  <path d="M157 91v26l20 11" fill="none" stroke="#5d5348" stroke-width="7" stroke-linecap="round" stroke-linejoin="round"/>
  <path d="M119 115H99M196 115h20" stroke="#d98a2b" stroke-width="7" stroke-linecap="round"/>
  <path d="M102 104 88 115l14 11M213 104l14 11-14 11" fill="none" stroke="#d98a2b" stroke-width="7" stroke-linecap="round" stroke-linejoin="round"/>
  <g font-family="Arial, sans-serif" font-weight="800" font-size="19" fill="#5d5348">
    <rect x="227" y="60" width="56" height="31" rx="15" fill="#e4f4d7" stroke="#5d5348" stroke-width="5"/>
    <text x="255" y="82" text-anchor="middle">Ca</text>
    <rect x="213" y="99" width="56" height="31" rx="15" fill="#ffe3e6" stroke="#5d5348" stroke-width="5"/>
    <text x="241" y="121" text-anchor="middle">Mg</text>
    <rect x="234" y="138" width="56" height="31" rx="15" fill="#dbeeff" stroke="#5d5348" stroke-width="5"/>
    <text x="262" y="160" text-anchor="middle">Fe</text>
  </g>
</svg>
