<svg xmlns="http://www.w3.org/2000/svg" viewBox="0 0 320 230" role="img" aria-labelledby="title desc">
  <title id="title">Blood pressure caution card</title>
  <desc id="desc">Blood pressure cuff, medicine, gauge, and caution symbol.</desc>
  <rect width="320" height="230" rx="22" fill="#fffdf9"/>
  <rect x="16" y="16" width="288" height="198" rx="20" fill="#ffffff" stroke="#b9b2a9" stroke-width="3"/>
  <path d="M51 184c45 12 143 15 219 2" fill="none" stroke="#ffe8c9" stroke-width="21" stroke-linecap="round"/>
  <rect x="47" y="66" width="55" height="81" rx="12" fill="#ffe0a8" stroke="#5d5348" stroke-width="5"/>
  <rect x="58" y="46" width="34" height="23" rx="6" fill="#e4edf7" stroke="#5d5348" stroke-width="5"/>
  <path d="M74 95v17M66 104h17" stroke="#65ad74" stroke-width="6" stroke-linecap="round"/>
  <rect x="123" y="90" width="87" height="75" rx="18" fill="#70aee8" stroke="#5d5348" stroke-width="6"/>
  <path d="M210 128h34c18 0 27-11 27-25" fill="none" stroke="#5d5348" stroke-width="8" stroke-linecap="round"/>
  <circle cx="250" cy="100" r="38" fill="#ffffff" stroke="#5d5348" stroke-width="6"/>
  <path d="M250 100l22-17" stroke="#e55b49" stroke-width="7" stroke-linecap="round"/>
  <path d="M230 111h40" stroke="#d8e2e7" stroke-width="5" stroke-linecap="round"/>
  <path d="M165 107v42" stroke="#ffffff" stroke-width="9" stroke-linecap="round"/>
  <path d="M231 151h51l-26 45-25-45Z" fill="#ffe49a" stroke="#5d5348" stroke-width="5" stroke-linejoin="round"/>
  <path d="M256 163v14" stroke="#5d5348" stroke-width="6" stroke-linecap="round"/><circle cx="256" cy="185" r="4" fill="#5d5348"/>
</svg>
