<svg xmlns="http://www.w3.org/2000/svg" viewBox="0 0 220 160" role="img" aria-labelledby="title desc">
  <title id="title">Digestive discomfort</title>
  <desc id="desc">A stomach pictogram with nausea bubbles and a mild information marker.</desc>
  <rect width="220" height="160" rx="18" fill="#f4f9fd"/>
  <rect x="14" y="14" width="192" height="132" rx="16" fill="#ffffff" stroke="#d8e2e7" stroke-width="2"/>
  <path d="M97 35c0 22-15 28-15 47 0 25 20 45 48 45 25 0 43-16 43-38 0-24-20-39-46-34-5-7-9-14-9-20" fill="#ffe0bf" stroke="#1f2b32" stroke-width="6" stroke-linecap="round" stroke-linejoin="round"/>
  <path d="M111 77c11-5 26-4 36 4" fill="none" stroke="#d9821f" stroke-width="6" stroke-linecap="round"/>
  <circle cx="64" cy="58" r="9" fill="#dff4ed" stroke="#1f2b32" stroke-width="4"/>
  <circle cx="48" cy="84" r="6" fill="#dff4ed" stroke="#1f2b32" stroke-width="4"/>
  <circle cx="67" cy="105" r="5" fill="#dff4ed" stroke="#1f2b32" stroke-width="4"/>
  <circle cx="181" cy="38" r="16" fill="#e7f0fa" stroke="#2d6cb3" stroke-width="5"/>
  <path d="M181 34v18" stroke="#2d6cb3" stroke-width="5" stroke-linecap="round"/>
  <circle cx="181" cy="27" r="3" fill="#2d6cb3"/>
</svg>
