<svg xmlns="http://www.w3.org/2000/svg" viewBox="0 0 220 160" role="img" aria-labelledby="title desc">
  <title id="title">Headache</title>
  <desc id="desc">A head silhouette with bold pain bolts near the forehead.</desc>
  <rect width="220" height="160" rx="18" fill="#f4f9fd"/>
  <rect x="14" y="14" width="192" height="132" rx="16" fill="#ffffff" stroke="#d8e2e7" stroke-width="2"/>
  <path d="M96 35c-25 0-45 20-45 46 0 18 9 32 23 40v18h53v-29h16c6 0 9-7 5-12l-11-16c1-27-16-47-41-47Z" fill="#e7f0fa" stroke="#1f2b32" stroke-width="6" stroke-linejoin="round"/>
  <circle cx="89" cy="83" r="5" fill="#1f2b32"/>
  <path d="M132 41l-18 22h17l-22 30" fill="none" stroke="#d94435" stroke-width="8" stroke-linecap="round" stroke-linejoin="round"/>
  <path d="M154 56l-14 17h13l-17 25" fill="none" stroke="#d9821f" stroke-width="7" stroke-linecap="round" stroke-linejoin="round"/>
  <circle cx="174" cy="119" r="17" fill="#e7f0fa" stroke="#2d6cb3" stroke-width="5"/>
  <path d="M174 115v18" stroke="#2d6cb3" stroke-width="5" stroke-linecap="round"/>
  <circle cx="174" cy="108" r="3" fill="#2d6cb3"/>
</svg>
