<svg xmlns="http://www.w3.org/2000/svg" viewBox="0 0 220 160" role="img" aria-labelledby="title desc">
  <title id="title">Keep vitamin K intake consistent</title>
  <desc id="desc">Leafy greens with a vitamin K badge and steady arrows.</desc>
  <rect width="220" height="160" rx="18" fill="#f2fbf6"/>
  <rect x="14" y="14" width="192" height="132" rx="16" fill="#ffffff" stroke="#d8e2e7" stroke-width="2"/>
  <path d="M75 124c-22-30-16-68 22-92 14 37 8 72-22 92Z" fill="#62b572" stroke="#1f2b32" stroke-width="5" stroke-linejoin="round"/>
  <path d="M111 126c-28-25-29-67 4-96 20 33 22 70-4 96Z" fill="#2e8f65" stroke="#1f2b32" stroke-width="5" stroke-linejoin="round"/>
  <path d="M144 124c-12-34-1-67 33-87 11 37-1 69-33 87Z" fill="#8dca72" stroke="#1f2b32" stroke-width="5" stroke-linejoin="round"/>
  <path d="M75 124c19-25 26-55 22-92M111 126c9-32 10-64 4-96M144 124c18-25 28-53 33-87" fill="none" stroke="#ffffff" stroke-width="4" stroke-linecap="round"/>
  <circle cx="53" cy="52" r="25" fill="#dff4ed" stroke="#207a5a" stroke-width="6"/>
  <text x="53" y="60" text-anchor="middle" font-family="Arial, sans-serif" font-size="26" font-weight="800" fill="#207a5a">K</text>
  <path d="M44 123h42M76 114l12 9-12 9M176 123h-42M144 114l-12 9 12 9" fill="none" stroke="#2d6cb3" stroke-width="6" stroke-linecap="round" stroke-linejoin="round"/>
</svg>
