<svg xmlns="http://www.w3.org/2000/svg" viewBox="0 0 320 230" role="img" aria-labelledby="title desc">
  <title id="title">Liver warning signs card</title>
  <desc id="desc">Liver, dark urine drop, medicine bottle, and yellow caution badge.</desc>
  <rect width="320" height="230" rx="22" fill="#fffdf9"/>
  <rect x="16" y="16" width="288" height="198" rx="20" fill="#ffffff" stroke="#b9b2a9" stroke-width="3"/>
  <path d="M51 184c44 12 145 15 220 2" fill="none" stroke="#ffe8c9" stroke-width="21" stroke-linecap="round"/>
  <rect x="47" y="67" width="55" height="80" rx="12" fill="#ffe0a8" stroke="#5d5348" stroke-width="5"/>
  <rect x="58" y="47" width="34" height="23" rx="6" fill="#e4edf7" stroke="#5d5348" stroke-width="5"/>
  <path d="M74 96v17M66 104h17" stroke="#65ad74" stroke-width="6" stroke-linecap="round"/>
  <path d="M111 105c27-39 88-47 153-33 24 5 39 24 33 47-7 28-38 37-72 29-31-8-59 2-85 20-23 17-53 3-55-24-1-13 8-26 26-39Z" fill="#c95b4c" stroke="#5d5348" stroke-width="6" stroke-linejoin="round"/>
  <path d="M205 72c3 29-3 51-19 67" fill="none" stroke="#84352f" stroke-width="7" stroke-linecap="round"/>
  <path d="M139 85c34-11 74-12 122-2" fill="none" stroke="#f1aaa3" stroke-width="6" stroke-linecap="round"/>
  <path d="M247 146c14 18 22 30 22 42 0 13-11 23-24 23s-24-10-24-23c0-12 10-26 26-42Z" fill="#8a4b2a" stroke="#5d5348" stroke-width="5" stroke-linejoin="round"/>
  <circle cx="120" cy="65" r="18" fill="#ffc957" stroke="#5d5348" stroke-width="5"/>
  <path d="M108 65h24" stroke="#fff4e9" stroke-width="5" stroke-linecap="round"/>
  <path d="M242 32h48l-24 42-24-42Z" fill="#ffe49a" stroke="#5d5348" stroke-width="5" stroke-linejoin="round"/>
  <path d="M266 44v14" stroke="#5d5348" stroke-width="6" stroke-linecap="round"/><circle cx="266" cy="66" r="4" fill="#5d5348"/>
</svg>
