<svg xmlns="http://www.w3.org/2000/svg" viewBox="0 0 320 230" role="img" aria-labelledby="title desc">
  <title id="title">Medicine interaction review card</title>
  <desc id="desc">Two medicine bottles, loose pills, and a large warning triangle for interaction review.</desc>
  <rect width="320" height="230" rx="22" fill="#fffdf9"/>
  <rect x="16" y="16" width="288" height="198" rx="20" fill="#ffffff" stroke="#b9b2a9" stroke-width="3"/>
  <path d="M50 184c44 12 145 14 219 2" fill="none" stroke="#ffe5c6" stroke-width="21" stroke-linecap="round"/>
  <rect x="49" y="69" width="59" height="86" rx="13" fill="#dbeeff" stroke="#5d5348" stroke-width="5"/>
  <rect x="61" y="48" width="36" height="24" rx="6" fill="#70aee8" stroke="#5d5348" stroke-width="5"/>
  <path d="M66 109h26" stroke="#ffffff" stroke-width="8" stroke-linecap="round"/>
  <rect x="205" y="69" width="59" height="86" rx="13" fill="#e4f4d7" stroke="#5d5348" stroke-width="5"/>
  <rect x="217" y="48" width="36" height="24" rx="6" fill="#6fbe70" stroke="#5d5348" stroke-width="5"/>
  <path d="M222 109h26" stroke="#ffffff" stroke-width="8" stroke-linecap="round"/>
  <rect x="127" y="126" width="64" height="27" rx="14" fill="#ffc1cb" stroke="#5d5348" stroke-width="5"/>
  <path d="M159 126v27" stroke="#5d5348" stroke-width="4"/>
  <path d="M136 87h47M159 64v47" stroke="#5d5348" stroke-width="8" stroke-linecap="round"/>
  <path d="M132 34h56l-28 49-28-49Z" fill="#ffe49a" stroke="#5d5348" stroke-width="5" stroke-linejoin="round"/>
  <path d="M160 45v17" stroke="#5d5348" stroke-width="6" stroke-linecap="round"/><circle cx="160" cy="69" r="4" fill="#5d5348"/>
  <circle cx="160" cy="112" r="79" fill="none" stroke="#e55b49" stroke-width="12"/>
  <path d="M102 55 219 170" stroke="#e55b49" stroke-width="13" stroke-linecap="round"/>
</svg>
