<svg xmlns="http://www.w3.org/2000/svg" viewBox="0 0 220 160" role="img" aria-labelledby="title desc">
  <title id="title">Pregnancy or breastfeeding caution</title>
  <desc id="desc">A pregnancy pictogram with a 20 weeks plus caution badge.</desc>
  <rect width="220" height="160" rx="18" fill="#fff8ed"/>
  <rect x="14" y="14" width="192" height="132" rx="16" fill="#ffffff" stroke="#d8e2e7" stroke-width="2"/>
  <circle cx="88" cy="42" r="17" fill="#ffe0bf" stroke="#1f2b32" stroke-width="5"/>
  <path d="M70 61c22-14 52 1 48 35 19 4 28 18 25 33H76c-18-26-20-51-6-68Z" fill="#e7f0fa" stroke="#1f2b32" stroke-width="6" stroke-linejoin="round"/>
  <path d="M113 95c-9 2-18 8-22 20" fill="none" stroke="#2d6cb3" stroke-width="6" stroke-linecap="round"/>
  <path d="M66 85l-22 25M109 126v20M83 126l-11 20" stroke="#1f2b32" stroke-width="6" stroke-linecap="round"/>
  <rect x="134" y="39" width="56" height="34" rx="17" fill="#fff2d7" stroke="#d9821f" stroke-width="5"/>
  <text x="162" y="62" text-anchor="middle" font-family="Arial, sans-serif" font-size="18" font-weight="800" fill="#1f2b32">20w+</text>
  <path d="M145 91h45l-22.5 39-22.5-39Z" fill="#fff2d7" stroke="#d9821f" stroke-width="5" stroke-linejoin="round"/>
  <path d="M168 101v12" stroke="#d9821f" stroke-width="5" stroke-linecap="round"/>
  <circle cx="168" cy="120" r="3.5" fill="#d9821f"/>
</svg>
