<svg xmlns="http://www.w3.org/2000/svg" viewBox="0 0 320 230" role="img" aria-labelledby="title desc">
  <title id="title">Stomach bleeding warning card</title>
  <desc id="desc">A stomach, blood drop, and urgent warning mark in a medication safety card.</desc>
  <rect width="320" height="230" rx="22" fill="#fffdf9"/>
  <rect x="16" y="16" width="288" height="198" rx="20" fill="#ffffff" stroke="#b9b2a9" stroke-width="3"/>
  <path d="M51 184c44 12 144 15 220 2" fill="none" stroke="#ffd9cd" stroke-width="21" stroke-linecap="round"/>
  <rect x="48" y="63" width="58" height="84" rx="13" fill="#ffc27a" stroke="#5d5348" stroke-width="5"/>
  <rect x="60" y="43" width="36" height="23" rx="6" fill="#e4edf7" stroke="#5d5348" stroke-width="5"/>
  <path d="M77 94v18M68 103h18" stroke="#65ad74" stroke-width="6" stroke-linecap="round"/>
  <path d="M145 48c0 27-19 34-19 57 0 31 25 56 58 56 31 0 54-20 54-48 0-31-25-49-58-41-6-9-10-18-10-24" fill="#ffd9b7" stroke="#5d5348" stroke-width="6" stroke-linecap="round" stroke-linejoin="round"/>
  <path d="M159 104c15-7 36-5 48 6" fill="none" stroke="#d98a2b" stroke-width="7" stroke-linecap="round"/>
  <path d="M97 100c16 19 26 34 26 49 0 15-13 28-28 28s-28-13-28-28c0-15 13-32 30-49Z" fill="#e55b49" stroke="#5d5348" stroke-width="5" stroke-linejoin="round"/>
  <path d="M232 45h48l-24 42-24-42Z" fill="#ffe49a" stroke="#5d5348" stroke-width="5" stroke-linejoin="round"/>
  <path d="M256 56v14" stroke="#5d5348" stroke-width="6" stroke-linecap="round"/><circle cx="256" cy="78" r="4" fill="#5d5348"/>
</svg>
