<svg xmlns="http://www.w3.org/2000/svg" viewBox="0 0 220 160" role="img" aria-labelledby="title desc">
  <title id="title">Sun exposure caution</title>
  <desc id="desc">A bright sun, shield, and caution mark for photosensitivity.</desc>
  <rect width="220" height="160" rx="18" fill="#fff8ed"/>
  <rect x="14" y="14" width="192" height="132" rx="16" fill="#ffffff" stroke="#d8e2e7" stroke-width="2"/>
  <circle cx="76" cy="68" r="28" fill="#f7c15e" stroke="#1f2b32" stroke-width="6"/>
  <path d="M76 24v17M76 95v18M32 68h17M103 68h18M45 37l12 12M95 88l12 12M107 37 95 49M57 88l-12 12" stroke="#f7c15e" stroke-width="8" stroke-linecap="round"/>
  <path d="M134 46l43 15v30c0 25-18 41-43 50-25-9-43-25-43-50V61l43-15Z" fill="#e7f0fa" stroke="#1f2b32" stroke-width="6" stroke-linejoin="round"/>
  <path d="M116 91l13 13 27-31" fill="none" stroke="#207a5a" stroke-width="8" stroke-linecap="round" stroke-linejoin="round"/>
  <path d="M154 29h42l-21 36-21-36Z" fill="#fff2d7" stroke="#d9821f" stroke-width="5" stroke-linejoin="round"/>
  <path d="M175 39v11" stroke="#d9821f" stroke-width="5" stroke-linecap="round"/>
  <circle cx="175" cy="56" r="3.5" fill="#d9821f"/>
</svg>
